# xmcd
#
# Track frame offsets: 
#        150
#        16220
#        30480
#        47345
#        66632
#        83020
#        98375
#        116795
#        128945
#        146587
#        162417
#        177430
#
# Disc length: 2620 seconds
#
# Revision: 0
# Processed by: cddbd v1.4PL0 Copyright (c) Steve Scherf et al.
# Submitted via: ExactAudioCopy v0.90b2
#
DISCID=9a0a3a0c
DTITLE=Alabama - With Love From... Alabama
DYEAR=1900
DGENRE=Country
TTITLE0=The Closer You Get
TTITLE1=You Turn Me On
TTITLE2=Touch Me When We're Dancing
TTITLE3="You've Got" The Touch
TTITLE4=When We Make Love
TTITLE5=Feels So Right
TTITLE6=I Want To Know You Before We Make Love
TTITLE7=Is This How Love Begins
TTITLE8=What In The Name Of Love
TTITLE9=On This Side Of The Moon
TTITLE10=Love In The First Degree
TTITLE11=Once Upon A Lifetime
EXTD=
EXTT0=
EXTT1=
EXTT2=
EXTT3=
EXTT4=
EXTT5=
EXTT6=
EXTT7=
EXTT8=
EXTT9=
EXTT10=
EXTT11=
PLAYORDER=
